# xmcd
#
# Track frame offsets: 
#        150
#        21945
#        36650
#        53835
#        69960
#        85700
#        106430
#        124027
#        135115
#        151895
#        170670
#        192635
#
# Disc length: 3211 seconds
#
# Revision: 0
# Processed by: cddbd v1.5.2PL0 Copyright (c) Steve Scherf et al.
# Submitted via: ExactAudioCopy v0.99pb3
#
DISCID=9e0c890c
DTITLE=Grumps - Outside
DYEAR=1997
DGENRE=Punk-pop
TTITLE0=Intro,Funnyman
TTITLE1=Dirt
TTITLE2=In Your Soul
TTITLE3=Miss Piggy (Your Highness Has A Soul Mirror)
TTITLE4=Let Me Sleep
TTITLE5=Ex- My Responsibility
TTITLE6=Spiderworld
TTITLE7=Dog Will
TTITLE8=Green Slap
TTITLE9=Just A Fake
TTITLE10=Boring Hate
TTITLE11=Hope Alone
EXTD=
EXTT0=
EXTT1=
EXTT2=
EXTT3=
EXTT4=
EXTT5=
EXTT6=
EXTT7=
EXTT8=
EXTT9=
EXTT10=
EXTT11=
PLAYORDER=
